# ProBuilder 4.4.0
# https://unity3d.com/unity/features/worldbuilding/probuilder
# 29/11/2021 06:27:17 p. m.

mtllib ./Tank.mtl
o Tank

g Tank
v 4.603658 0.2411276 0.9795589
v 3.241435 0.2631067 0.5790564
v 3.386233 0.3022013 0.05498727
v 4.748459 0.2809783 0.4555176
v 3.239338 0.8997468 0.6206055
v 1.877114 0.9217261 0.220103
v 2.021781 0.9600664 -0.3040293
v 3.384007 0.9388434 0.09650107
v 2.166447 0.9984068 -0.8281617
v 3.528677 0.9779398 -0.4276034
v 3.531031 0.341296 -0.4690818
v 4.893261 0.3208291 -0.06852361
v 1.879211 0.2850859 0.1785539
v 0.3682601 0.3254181 -0.2651068
v 0.5130184 0.3549418 -0.7895288
v 2.024006 0.3234244 -0.3455431
v 0.6577767 0.3844654 -1.313951
v 2.168801 0.3617629 -0.8696402
v 2.135198 -1.218779 -0.9358828
v 1.990404 -1.257118 -0.4117856
v 3.352631 -1.278341 -0.01125507
v 3.497422 -1.240758 -0.5353802
v 1.845608 -1.295456 0.1123115
v 3.207838 -1.315923 0.5128698
v 4.572487 -0.7577788 0.9347671
v 4.717276 -0.7209526 0.4106144
v 4.862064 -0.6841264 -0.1135384
v 0.6266053 -0.614441 -1.358743
v 0.4818344 -0.6469891 -0.8344322
v 0.3370634 -0.6795372 -0.3101216
v 2.310047 0.3837288 -1.348871
v 3.672277 0.3632619 -0.9483129
v 2.307654 1.03011 -1.306759
v 3.669884 1.009643 -0.9062012
v 0.1439729 1.335573 -0.9772936
v 0.2229561 1.337272 -1.279447
v 0.1424905 1.670629 -0.9537165
v 0.2068947 1.711184 -1.204777
v 0.7678108 -0.5973532 -1.838085
v 2.276404 -1.201692 -1.415225
v 3.638628 -1.223671 -1.014723
v 0.7989821 0.4015531 -1.793293
v 5.00327 -0.6670387 -0.5928809
v 5.034466 0.3379168 -0.547866
v 2.291701 -0.7736605 -1.395498
v 0.781872 -0.4625792 -1.829139
v 0.3511375 -0.5417386 -0.3010635
v 1.860885 -0.8698642 0.1319835
v 0.495902 -0.5107028 -0.8254299
v 0.6406665 -0.4796669 -1.349796
v 4.586547 -0.6230047 0.9437139
v 4.731342 -0.5846662 0.4196168
v 4.876137 -0.5463278 -0.1044801
v 3.653927 -0.7948835 -0.9949672
v 5.017343 -0.52924 -0.5838227
v 3.223112 -0.8910872 0.532514

vt 0 1
vt 0.25 1
vt 0.25 0.5
vt 0 0.5
vt 0.5 1
vt 0.5 0.5
vt 0.5 0
vt 0.25 0
vt 0 0
vt 1 1
vt 1 0.5
vt 1 0
vt 2.52336 0.5013168
vt 1.103313 0.5028308
vt 2.523893 1.139315
vt 1.103846 1.140829
vt 0.0008467818 0.5075484
vt -0.5438813 0.48719
vt -0.01782695 1.145273
vt -0.562555 1.124915
vt 0.5191519 0.4887667
vt -0.02557627 0.5083684
vt 0.5378256 1.126491
vt -0.006902535 1.146093
vt 0.5455945 0.5273828
vt 0.000866367 0.5070243
vt 0.5269207 1.165107
vt -0.01780736 1.144749
vt -1.084324 0.5003842
vt -2.504371 0.5003842
vt -1.08459 1.14814
vt -2.504637 1.14814
vt -0.7590232 0.06774157
vt -0.7418836 0.6125527
vt 1.464965 0.177073
vt 1.46948 0.4887072
vt 1.089903 1.142323
vt 1.088233 0.5043277
vt -0.9096643 1.820891
vt -0.9108505 1.48501
vt -1.111226 0.5116848
vt -1.1106 1.149683
vt 0.8886595 1.463698
vt 0.8914186 1.841728
vt 0.6409822 0.611439
vt 0.6565139 0.06657968
vt -1.471243 0.4433884
vt -1.451783 0.1824792
vt 0.3230724 0.589291
vt -1.356179 0.5892913
vt 0.3230724 1.089291
vt -1.35618 1.089291
vt -0.5706058 1.165792
vt -0.5892777 0.5280671
vt -1.070392 1.180425
vt -1.089349 0.5329462
vt 0.5892808 0.5286603
vt 0.5706089 1.166385
vt 1.089352 0.5335395
vt 1.070395 1.181018
vt 2.504637 0.6044799
vt 1.08459 0.6044799
vt 2.504637 1.10448
vt 1.08459 1.10448
vt -1.057307 0.5892913
vt -2.477355 0.5892913
vt -1.057307 1.089291
vt -2.477355 1.089291
vt 1.084324 0.5944105
vt -0.490834 0.5944105
vt 1.084324 1.094506
vt -0.490834 1.094387
vt -1.896021 0.5892913
vt -3.429003 0.589291
vt -1.896021 1.089291
vt -3.429003 1.089291
vt 3.924418 0.589291
vt 2.504371 0.589291
vt 3.924418 1.089291
vt 2.504371 1.089362
vt -0.589291 0.4972178
vt -0.5892912 -0.3669986
vt -1.089291 -0.3669986
vt -1.089291 0.4972178
vt -0.589291 -0.5026692
vt -1.089291 -0.5026692
vt 0.589291 -0.2483748
vt 0.5892906 -0.1096899
vt 1.089291 -0.1096899
vt 1.089291 -0.2483748
vt 0.589291 0.7575913
vt 1.089291 0.7575913

vn -0.005739429 0.9972233 0.07424806
vn -0.00580025 0.9972771 0.07351388
vn -0.005861073 0.9973308 0.07277969
vn -0.005347611 0.9973234 0.07292102
vn -0.005408444 0.9973763 0.0721867
vn -0.005469276 0.9974291 0.07145238
vn -0.005921946 0.9973835 0.07204561
vn -0.005982781 0.9974362 0.07131139
vn -0.006374486 0.997338 0.0726385
vn -0.006313655 0.9972844 0.07337262
vn -0.006252825 0.9972307 0.07410677
vn 0.004809202 0.9972261 0.07427725
vn 0.004397616 0.9977874 0.06579101
vn 0.003986029 0.9983488 0.05730477
vn -0.0009995267 0.9978933 0.06430757
vn -0.001412443 0.9984399 0.05581974
vn -0.00058661 0.9973467 0.07279541
vn 0.004955837 -0.9974216 -0.07159388
vn 0.00501665 -0.9974734 -0.07085924
vn 0.005077463 -0.9975253 -0.0701246
vn 0.005469286 -0.9974291 -0.07145211
vn 0.00553008 -0.9974808 -0.07071781
vn 0.005590876 -0.9975325 -0.0699835
vn 0.3685748 -0.9289052 0.03588147
vn 0.3686056 -0.9288667 0.03656048
vn 0.368544 -0.9289436 0.03520246
vn 0.3681989 -0.9290329 0.03643651
vn 0.368168 -0.9290712 0.03575717
vn 0.3681371 -0.9291097 0.03507785
vn -0.3313481 -0.9316174 -0.1493238
vn -0.3313662 -0.9307603 -0.1544504
vn -0.3313843 -0.9299031 -0.1595771
vn -0.3342735 -0.9304534 -0.1500592
vn -0.3342879 -0.9295937 -0.1551785
vn -0.3343024 -0.9287339 -0.1602978
vn -0.2824422 -0.06339934 0.9571874
vn 0.9640584 -0.01393136 0.2653263
vn 0.9640914 -0.01402759 0.2652013
vn -0.9640594 0.01413958 -0.2653115
vn -0.9641232 0.01391582 -0.2650914
vn 0.2824122 0.06340705 -0.9571956
vn -0.4184596 -0.8900741 -0.1807204
vn -0.4219549 -0.8937787 -0.1484892
vn -0.4254501 -0.8974833 -0.116258
vn -0.3470391 -0.06223314 0.9357839
vn -0.3486048 -0.06476245 0.935025
vn -0.3501706 -0.06729176 0.934266
vn 0.2363033 0.06404262 -0.9695669
vn 0.2454301 0.1319636 -0.9578711
vn 0.2545569 0.1998846 -0.9461753
vn 0.3113634 0.9376426 0.1545288
vn 0.2940559 0.9362924 0.1882752
vn 0.2767484 0.9349422 0.2220217
vn -0.3364109 -0.9323704 -0.1323378
vn -0.9592865 0.01482919 -0.2820468
vn 0.9592841 -0.01482989 0.2820546
vn -0.004089555 0.9978837 0.06489572
vn -0.005199692 -0.9992959 -0.03715488
vn 0.001421868 0.998931 0.04620583
vn 0.001313905 0.9991414 0.0410931
vn 0.001205943 0.9993518 0.03598038
vn 0.3575066 -0.9311217 0.07212202
vn 0.004177374 0.9993119 0.03685429
vn 0.004447288 0.9990938 0.04201442
vn 0.004717203 0.9988756 0.04717454
vn 0.2823854 0.03413531 -0.9586939
vn -0.2824109 -0.03417516 0.9586849
vn -0.9639477 0.03005369 -0.2643903
vn -0.9591504 0.1166048 -0.2577484
vn -0.9592435 0.1160336 -0.2576601
vn -0.9590572 0.1171761 -0.2578367
vn -0.9639606 0.02999535 -0.2643502
vn -0.9592595 0.1154854 -0.2578463
vn -0.9593504 0.1149267 -0.2577583
vn 0.9594392 -0.1165581 0.2566923
vn 0.9593476 -0.1171301 0.2567749
vn 0.9595308 -0.1159862 0.2566097
vn 0.9640177 -0.0300453 0.264136
vn 0.9595453 -0.1154378 0.2568022
vn 0.959456 -0.1159966 0.2568845
vn 0.9596345 -0.114879 0.2567198
vn 0.9640301 -0.02998745 0.2640973
vn -0.9590899 0.03066463 -0.2814372
vn -0.9536895 0.1178707 -0.2767373
vn 0.9539216 -0.1156212 0.2768861
vn 0.9590911 -0.03060901 0.2814395

usemtl green
f 4/4/2 3/3/3 2/2/2 1/1/1
f 8/3/5 7/6/6 6/5/5 5/2/4
f 10/8/7 9/7/8 7/6/7 8/3/3
f 12/9/10 11/8/9 3/3/10 4/4/11
f 16/6/13 15/11/14 14/10/13 13/5/12
f 18/7/15 17/12/16 15/11/15 16/6/17
f 22/2/19 21/3/20 20/6/19 19/5/18
f 21/3/22 24/8/23 23/7/22 20/6/21
f 26/4/24 25/9/25 24/8/24 21/3/26
f 27/1/28 26/4/27 21/3/28 22/2/29
f 19/5/31 20/6/32 29/11/31 28/10/30
f 20/6/34 23/7/35 30/12/34 29/11/33
f 5/15/36 6/16/36 13/14/36 2/13/36
f 8/19/38 5/20/38 2/18/38 3/17/37
f 6/23/39 7/24/40 16/22/39 13/21/39
f 10/27/37 8/28/37 3/26/37 11/25/37
f 33/31/41 34/32/41 32/30/41 31/29/41
f 35/35/43 36/36/44 18/34/43 16/33/42
f 37/39/46 35/40/47 16/38/46 7/37/45
f 36/43/49 38/44/50 9/42/49 18/41/48
f 38/47/52 37/48/53 7/46/52 9/45/51
f 39/51/54 40/52/54 19/50/54 28/49/54
f 33/55/55 31/56/55 18/54/55 9/53/55
f 32/59/56 34/60/56 10/58/56 11/57/56
f 34/63/57 33/64/57 9/62/57 10/61/57
f 40/67/58 41/68/58 22/66/58 19/65/58
f 31/71/60 42/72/61 17/70/60 18/69/59
f 41/75/62 43/76/62 27/74/62 22/73/62
f 44/79/64 32/80/65 11/78/64 12/77/63
f 46/11/66 45/6/66 40/7/66 39/12/66
f 46/11/66 42/10/66 31/5/66 45/6/66
f 30/10/67 23/5/67 48/6/67 47/11/67
f 47/11/67 48/6/67 13/7/67 14/12/67
f 50/4/68 49/6/68 15/5/68 17/1/68
f 28/9/69 29/7/70 49/6/69 50/4/71
f 49/6/68 47/11/72 14/10/68 15/5/68
f 29/7/73 30/12/74 47/11/73 49/6/70
f 52/6/77 51/4/75 25/9/76 26/7/75
f 4/5/78 1/1/78 51/4/78 52/6/78
f 53/11/81 52/6/79 26/7/80 27/12/79
f 12/10/82 4/5/78 52/6/78 53/11/78
f 45/6/66 54/3/66 41/8/66 40/7/66
f 31/5/66 32/2/66 54/3/66 45/6/66
f 54/3/66 55/4/66 43/9/66 41/8/66
f 32/2/66 44/1/66 55/4/66 54/3/66
f 13/7/67 48/6/67 56/3/67 2/8/67
f 48/6/67 23/5/67 24/2/67 56/3/67
f 2/8/67 56/3/67 51/4/67 1/9/67
f 56/3/67 24/2/67 25/1/67 51/4/67
f 46/83/83 50/82/83 17/81/83 42/84/83
f 39/86/84 28/85/84 50/82/84 46/83/84
f 55/89/85 53/88/85 27/87/85 43/90/85
f 44/92/86 12/91/86 53/88/86 55/89/86

